<?xml version="1.0" encoding="iso-8859-1"?>
<!-- Uploaded to: SVG Repo, www.svgrepo.com, Generator: SVG Repo Mixer Tools -->
<!DOCTYPE svg PUBLIC "-//W3C//DTD SVG 1.1//EN" "http://www.w3.org/Graphics/SVG/1.1/DTD/svg11.dtd">
<svg fill="#000000" version="1.1" id="Capa_1" xmlns="http://www.w3.org/2000/svg" xmlns:xlink="http://www.w3.org/1999/xlink" 
	 width="800px" height="800px" viewBox="0 0 46.197 46.197"
	 xml:space="preserve">
<g>
	<g>
		<path d="M16.136,25.107c-0.001,0-0.004,0-0.005,0c-0.002,0-0.004,0-0.007,0c-1.424,0-2.578,1.153-2.578,2.578
			c0,1.426,1.154,2.58,2.578,2.58c0.003,0,0.005,0,0.007,0c0.001,0,0.004,0,0.005,0c1.426,0,2.58-1.154,2.58-2.58
			C18.716,26.261,17.562,25.107,16.136,25.107z"/>
		<path d="M42.104,27.092c0-5.921-2.697-11.21-6.938-14.72l-0.01-0.417c-0.012-0.756-0.094-1.497-0.24-2.216
			C33.794,4.23,28.915,0,23.109,0c-0.002,0-0.003,0-0.004,0l0,0l0,0c-0.002,0-0.003,0-0.005,0
			c-5.807,0.002-10.686,4.23-11.808,9.739c-0.147,0.719-0.232,1.459-0.245,2.216l-0.011,0.417c-4.241,3.509-6.943,8.799-6.943,14.72
			l0,0c0,0.001,0,0.001,0,0.001c0,10.474,8.56,19.104,19.01,19.104l0,0h-0.004C33.551,46.197,42.104,37.566,42.104,27.092
			C42.104,27.094,42.104,27.093,42.104,27.092L42.104,27.092z M8.084,27.1c0-1.836,0.932-5.208,0.963-5.321
			c0.182,0.052,2.653,0.742,4.003,0.742c0.001,0,0.004,0,0.005,0c0.003,0,0.004,0,0.006,0c4.042,0,7.649-2.222,10.044-5.701
			c2.394,3.479,6,5.701,10.042,5.701c0.002,0,0.004,0,0.006,0s0.004,0,0.006,0c1.349,0,3.82-0.689,4-0.742
			c0.033,0.114,0.966,3.479,0.966,5.316c0,8.306-6.728,15.128-15.02,15.13C14.812,42.223,8.084,35.406,8.084,27.1z M32.168,11.977
			H14.04c0.08-4.945,4.095-9.017,9.064-9.021C28.071,2.959,32.088,7.031,32.168,11.977z"/>
		<path d="M30.083,25.107c0,0-0.004,0-0.006,0s-0.004,0-0.006,0c-1.427,0-2.58,1.153-2.58,2.578c0,1.426,1.153,2.58,2.58,2.58
			c0.002,0,0.004,0,0.006,0s0.004,0,0.004,0c1.427,0,2.582-1.154,2.582-2.58C32.663,26.261,31.508,25.107,30.083,25.107z"/>
		<path d="M21.284,8.879h0.658v0.729c0,0.604,0.531,1.092,1.133,1.092c0.603,0,1.134-0.488,1.134-1.092V8.879h0.713
			c0.604,0,1.093-0.484,1.093-1.087s-0.488-1.086-1.093-1.086h-0.713V5.97c0-0.604-0.531-1.092-1.134-1.092
			c-0.602,0-1.133,0.488-1.133,1.092v0.735h-0.658c-0.602,0-1.091,0.484-1.091,1.086S20.683,8.879,21.284,8.879z"/>
	</g>
</g>
</svg>